<?xml version="1.0" encoding="UTF-8"?>
<!-- Generator: Adobe Illustrator 23.0.3, SVG Export Plug-In . SVG Version: 6.00 Build 0)  -->
<svg version="1.1" baseProfile="basic" id="Ebene_1" xmlns="http://www.w3.org/2000/svg" xmlns:xlink="http://www.w3.org/1999/xlink" x="0px" y="0px" viewBox="0 0 288 63" xml:space="preserve">
<style type="text/css">
	.st0{fill:#D7A95A;}
</style>
<g>
	<g>
		<path d="M0,1.62c0-0.51,0.42-1.03,0.95-1.03h12.77c10.11,0,18.44,8.23,18.44,18.36c0,10.21-8.31,18.44-18.44,18.44H0.95    C0.44,37.38,0,36.96,0,36.35V1.62z M13.72,29.58c5.91,0,9.77-4.71,9.77-10.63S19.64,8.31,13.72,8.31H8.23v21.27H13.72z"/>
		<path d="M47.84,19.62L36.27,2.15c-0.42-0.69,0-1.54,0.86-1.54h6.86c0.42,0,0.69,0.25,0.86,0.51l7.28,10.8l7.28-10.8    c0.17-0.17,0.34-0.51,0.86-0.51h6.86c0.86,0,1.29,0.86,0.86,1.54L56.25,19.64v16.71c0,0.51-0.51,1.03-1.03,1.03h-6.27    c-0.59,0-1.03-0.42-1.03-1.03V19.64h-0.08V19.62z"/>
		<path d="M76.22,1.03c0-0.51,0.51-0.95,1.03-0.95h0.78c0.51,0,0.86,0.34,1.29,0.78l20.15,19.37h0.08V1.62    c0-0.51,0.42-1.03,1.03-1.03h6.27c0.51,0,1.03,0.51,1.03,1.03v35.32c0,0.59-0.51,0.95-1.03,0.95h-0.51    c-0.51,0-0.86-0.17-1.29-0.59L84.65,16.81h-0.08v19.54c0,0.51-0.42,1.03-1.03,1.03h-6.27c-0.51,0-1.03-0.42-1.03-1.03V1.03H76.22z    "/>
		<path d="M166.7,1.62c0-0.51,0.42-1.03,1.03-1.03h12.6c6.94,0,11.75,5.23,11.75,11.58c0,6.52-4.81,11.84-11.75,11.84h-5.49v12.34    c0,0.51-0.51,1.03-1.03,1.03h-6.18c-0.59,0-1.03-0.51-1.03-1.03V1.62H166.7z M180.16,16.37c2.24,0,3.86-1.79,3.86-4.11    c0-2.24-1.54-3.86-3.86-3.86h-5.32v8.06h5.32V16.37z"/>
		<path d="M208.44,8.31h-7.55c-0.59,0-1.03-0.51-1.03-1.03V1.54c0-0.51,0.42-1.03,1.03-1.03h23.32c0.59,0,1.03,0.51,1.03,1.03v5.74    c0,0.51-0.42,1.03-1.03,1.03h-7.55v28.04c0,0.51-0.51,1.03-1.03,1.03h-6.15c-0.51,0-1.03-0.51-1.03-1.03V8.31z"/>
		<path d="M237.01,1.62c0-0.51,0.51-1.03,1.03-1.03h6.27c0.51,0,1.03,0.51,1.03,1.03v34.73c0,0.51-0.42,1.03-1.03,1.03h-6.27    c-0.51,0-1.03-0.51-1.03-1.03V1.62z"/>
		<path d="M274.9,0.08c5.23,0,9.18,1.63,12.68,4.89c0.42,0.42,0.42,1.03,0.08,1.46l-4.11,4.28c-0.34,0.34-0.95,0.34-1.29,0    c-2.15-1.88-4.54-2.66-7.11-2.66c-5.91,0-10.3,4.98-10.3,10.8s4.37,10.63,10.38,10.63c2.91,0,5.15-0.86,7.03-2.49    c0.34-0.34,1.03-0.34,1.37,0.08l4.11,4.37c0.34,0.34,0.34,1.03-0.08,1.46c-3.61,3.44-8.06,5.06-12.77,5.06    c-10.47,0-18.95-8.31-18.95-18.86C255.95,8.48,264.35,0.08,274.9,0.08"/>
		<path class="st0" d="M141.91,1.71v6.69c0,0.59,0.34,1.12,0.86,1.46c3.25,1.79,5.4,5.32,5.4,9.26c0,5.74-4.71,10.47-10.55,10.47    c-5.74,0-10.47-4.71-10.47-10.47c0-3.95,2.24-7.47,5.4-9.26c0.51-0.25,0.86-0.86,0.86-1.46V1.71c0-0.59-0.59-1.03-1.12-0.86    c-7.89,2.32-13.55,9.52-13.55,18.17c0,10.47,8.4,18.86,18.86,18.86c10.55,0,18.95-8.31,18.95-18.86c0-8.65-5.66-15.87-13.55-18.17    C142.51,0.67,141.91,1.11,141.91,1.71"/>
	</g>
	<g>
		<path d="M26.55,51.93c0-0.15,0.14-0.3,0.3-0.3h1.05c0.15,0,0.3,0.14,0.3,0.3v9.31h4.3c0.17,0,0.3,0.14,0.3,0.3v0.86    c0,0.15-0.14,0.3-0.3,0.3h-5.64c-0.17,0-0.3-0.14-0.3-0.3V51.93H26.55z"/>
		<path d="M36.27,51.93c0-0.15,0.14-0.3,0.3-0.3h6.33c0.17,0,0.3,0.14,0.3,0.3v0.88c0,0.15-0.14,0.3-0.3,0.3H37.9v3.23h4.23    c0.15,0,0.3,0.14,0.3,0.3v0.88c0,0.17-0.14,0.3-0.3,0.3H37.9v3.4h5.01c0.17,0,0.3,0.14,0.3,0.3v0.86c0,0.15-0.14,0.3-0.3,0.3    h-6.33c-0.17,0-0.3-0.14-0.3-0.3V51.93z"/>
		<path d="M45.94,62.31l4.86-10.67c0.05-0.1,0.19-0.17,0.27-0.17h0.15c0.08,0,0.22,0.08,0.27,0.17l4.83,10.67    c0.1,0.2-0.03,0.41-0.27,0.41h-1c-0.19,0-0.3-0.1-0.37-0.24l-0.98-2.17h-5.18c-0.32,0.73-0.64,1.44-0.97,2.17    c-0.05,0.12-0.17,0.24-0.37,0.24h-1C45.98,62.73,45.84,62.51,45.94,62.31z M53.12,58.96l-1.95-4.34h-0.08l-1.93,4.34H53.12z"/>
		<path d="M59.74,51.93c0-0.15,0.14-0.3,0.29-0.3h3.64c3.07,0,5.55,2.49,5.55,5.54c0,3.08-2.51,5.55-5.55,5.55h-3.64    c-0.15,0-0.29-0.14-0.29-0.3V51.93z M63.45,61.23c2.34,0,4.03-1.71,4.03-4.06c0-2.34-1.69-4.03-4.03-4.03h-2.1v8.08h2.1V61.23z"/>
		<path d="M73.32,51.93c0-0.15,0.14-0.3,0.3-0.3h1.05c0.15,0,0.3,0.14,0.3,0.3v10.5c0,0.15-0.14,0.3-0.3,0.3h-1.05    c-0.15,0-0.3-0.14-0.3-0.3V51.93z"/>
		<path d="M79.88,51.76c0-0.15,0.14-0.29,0.3-0.29h0.39l6.88,7.96h0.02v-7.5c0-0.15,0.12-0.3,0.3-0.3h1.02c0.15,0,0.3,0.14,0.3,0.3    V62.6c0,0.15-0.14,0.29-0.3,0.29h-0.41l-6.88-8.18h-0.02v7.72c0,0.15-0.12,0.3-0.3,0.3h-1c-0.15,0-0.3-0.14-0.3-0.3L79.88,51.76    L79.88,51.76z"/>
		<path d="M98.88,51.47c1.52,0,2.78,0.56,3.84,1.47c0.12,0.12,0.14,0.32,0.02,0.44c-0.24,0.25-0.47,0.49-0.71,0.75    c-0.14,0.14-0.25,0.12-0.41-0.02c-0.75-0.64-1.73-1.08-2.69-1.08c-2.25,0-3.98,1.9-3.98,4.11c0,2.2,1.73,4.1,3.98,4.1    c1.32,0,2.22-0.47,2.37-0.54v-1.78h-1.56c-0.17,0-0.3-0.12-0.3-0.29v-0.91c0-0.17,0.14-0.3,0.3-0.3h2.88    c0.15,0,0.29,0.14,0.29,0.3c0,1.27,0.02,2.57,0.02,3.83c0,0.08-0.07,0.2-0.14,0.25c0,0-1.63,1.05-3.93,1.05    c-3.15,0-5.71-2.52-5.71-5.69C93.17,54.03,95.71,51.47,98.88,51.47z"/>
		<path d="M111.83,61.13c0.14-0.2,0.27-0.44,0.41-0.64c0.14-0.2,0.37-0.27,0.54-0.12c0.1,0.08,1.32,1.1,2.54,1.1    c1.1,0,1.79-0.66,1.79-1.47c0-0.95-0.83-1.56-2.39-2.2c-1.61-0.68-2.88-1.52-2.88-3.35c0-1.24,0.95-2.93,3.47-2.93    c1.59,0,2.78,0.83,2.93,0.93c0.12,0.08,0.25,0.3,0.1,0.54c-0.12,0.19-0.27,0.41-0.39,0.61c-0.12,0.2-0.34,0.3-0.56,0.15    c-0.12-0.07-1.22-0.8-2.13-0.8c-1.34,0-1.79,0.85-1.79,1.42c0,0.9,0.69,1.46,2.02,2c1.85,0.75,3.4,1.61,3.4,3.56    c0,1.64-1.47,3-3.54,3c-1.93,0-3.15-1.02-3.4-1.25C111.78,61.52,111.66,61.4,111.83,61.13z"/>
		<path d="M121.86,52.02c-0.07-0.22,0.07-0.37,0.29-0.37h1.07c0.12,0,0.25,0.12,0.29,0.22l1.91,7.28h0.07l2.59-7.48    c0.03-0.1,0.14-0.17,0.27-0.17h0.29c0.14,0,0.24,0.08,0.27,0.17l2.61,7.48h0.07l1.88-7.28c0.03-0.12,0.15-0.22,0.29-0.22h1.07    c0.22,0,0.36,0.15,0.29,0.37l-3,10.65c-0.03,0.12-0.15,0.22-0.29,0.22h-0.25c-0.12,0-0.24-0.08-0.27-0.17l-2.79-7.87h-0.08    l-2.76,7.87c-0.03,0.1-0.15,0.17-0.27,0.17h-0.24c-0.14,0-0.25-0.1-0.29-0.22L121.86,52.02z"/>
		<path d="M138.89,51.93c0-0.15,0.14-0.3,0.3-0.3h1.05c0.15,0,0.3,0.14,0.3,0.3v10.5c0,0.15-0.14,0.3-0.3,0.3h-1.05    c-0.15,0-0.3-0.14-0.3-0.3V51.93z"/>
		<path d="M144.73,61.13c0.14-0.2,0.27-0.44,0.41-0.64c0.14-0.2,0.37-0.27,0.54-0.12c0.1,0.08,1.32,1.1,2.54,1.1    c1.1,0,1.79-0.66,1.79-1.47c0-0.95-0.83-1.56-2.39-2.2c-1.61-0.68-2.88-1.52-2.88-3.35c0-1.24,0.95-2.93,3.47-2.93    c1.59,0,2.78,0.83,2.93,0.93c0.14,0.08,0.25,0.3,0.1,0.54c-0.12,0.19-0.27,0.41-0.39,0.61c-0.14,0.2-0.34,0.3-0.56,0.15    c-0.12-0.07-1.22-0.8-2.13-0.8c-1.34,0-1.79,0.85-1.79,1.42c0,0.9,0.69,1.46,2.02,2c1.85,0.75,3.4,1.61,3.4,3.56    c0,1.64-1.47,3-3.54,3c-1.93,0-3.15-1.02-3.4-1.25C144.68,61.52,144.56,61.4,144.73,61.13z"/>
		<path d="M155.06,61.13c0.14-0.2,0.27-0.44,0.41-0.64c0.14-0.2,0.37-0.27,0.54-0.12c0.1,0.08,1.32,1.1,2.54,1.1    c1.1,0,1.79-0.66,1.79-1.47c0-0.95-0.83-1.56-2.39-2.2c-1.61-0.68-2.88-1.52-2.88-3.35c0-1.24,0.95-2.93,3.47-2.93    c1.59,0,2.78,0.83,2.93,0.93c0.12,0.08,0.25,0.3,0.1,0.54c-0.12,0.19-0.27,0.41-0.39,0.61c-0.12,0.2-0.34,0.3-0.56,0.15    c-0.12-0.07-1.22-0.8-2.13-0.8c-1.34,0-1.79,0.85-1.79,1.42c0,0.9,0.69,1.46,2.02,2c1.85,0.75,3.4,1.61,3.4,3.56    c0,1.64-1.47,3-3.54,3c-1.93,0-3.15-1.02-3.4-1.25C155.01,61.52,154.89,61.4,155.06,61.13z"/>
		<path d="M176.28,51.47c3.17,0,5.71,2.56,5.71,5.72c0,3.17-2.54,5.69-5.71,5.69s-5.69-2.52-5.69-5.69    C170.59,54.03,173.11,51.47,176.28,51.47z M176.28,61.29c2.27,0,4.11-1.85,4.11-4.1c0-2.25-1.86-4.13-4.11-4.13    s-4.1,1.88-4.1,4.13C172.18,59.47,174.03,61.29,176.28,61.29z"/>
		<path d="M186.07,51.93c0-0.15,0.14-0.3,0.3-0.3h3.61c1.95,0,3.56,1.59,3.56,3.51c0,1.96-1.61,3.57-3.54,3.57h-2.3v3.73    c0,0.15-0.14,0.3-0.3,0.3h-1.03c-0.17,0-0.3-0.14-0.3-0.3v-10.5H186.07z M189.9,57.15c1.1,0,2.02-0.88,2.02-2.03    c0-1.08-0.91-1.9-2.02-1.9h-2.18v3.93H189.9z"/>
		<path d="M198.82,53.13h-2.59c-0.17,0-0.3-0.14-0.3-0.3v-0.88c0-0.15,0.12-0.3,0.3-0.3h6.81c0.17,0,0.3,0.14,0.3,0.3v0.88    c0,0.15-0.12,0.3-0.3,0.3h-2.59v9.3c0,0.15-0.14,0.3-0.3,0.3h-1.05c-0.15,0-0.3-0.14-0.3-0.3v-9.3H198.82z"/>
		<path d="M206.88,51.93c0-0.15,0.14-0.3,0.3-0.3h1.05c0.15,0,0.3,0.14,0.3,0.3v10.5c0,0.15-0.14,0.3-0.3,0.3h-1.05    c-0.15,0-0.3-0.14-0.3-0.3V51.93z"/>
		<path d="M218.34,51.47c1.61,0,2.76,0.54,3.83,1.47c0.14,0.12,0.14,0.32,0.02,0.44l-0.69,0.71c-0.1,0.14-0.25,0.14-0.39,0    c-0.75-0.64-1.76-1.07-2.74-1.07c-2.27,0-3.98,1.9-3.98,4.11c0,2.22,1.73,4.1,4,4.1c1.15,0,1.96-0.46,2.73-1.05    c0.14-0.12,0.29-0.1,0.37-0.02l0.73,0.71c0.12,0.12,0.1,0.32-0.02,0.42c-1.08,1.05-2.44,1.54-3.84,1.54    c-3.17,0-5.72-2.52-5.72-5.69C212.62,54.03,215.18,51.47,218.34,51.47z"/>
		<path d="M226.29,51.93c0-0.15,0.14-0.3,0.3-0.3h1.05c0.15,0,0.3,0.14,0.3,0.3v10.5c0,0.15-0.14,0.3-0.3,0.3h-1.05    c-0.15,0-0.3-0.14-0.3-0.3V51.93z"/>
		<path d="M231.33,62.31l4.86-10.67c0.05-0.1,0.19-0.17,0.27-0.17h0.15c0.08,0,0.22,0.08,0.27,0.17l4.83,10.67    c0.1,0.2-0.03,0.41-0.27,0.41h-1c-0.19,0-0.3-0.1-0.37-0.24l-0.98-2.17h-5.18c-0.32,0.73-0.64,1.44-0.97,2.17    c-0.05,0.12-0.17,0.24-0.37,0.24h-1C231.37,62.73,231.23,62.51,231.33,62.31z M238.51,58.96l-1.95-4.34h-0.08l-1.93,4.34H238.51z"/>
		<path d="M245.13,51.76c0-0.15,0.14-0.29,0.3-0.29h0.39l6.88,7.96h0.02v-7.5c0-0.15,0.12-0.3,0.3-0.3h1.02c0.15,0,0.3,0.14,0.3,0.3    V62.6c0,0.15-0.14,0.29-0.3,0.29h-0.41l-6.88-8.18h-0.02v7.72c0,0.15-0.12,0.3-0.3,0.3h-1c-0.15,0-0.3-0.14-0.3-0.3V51.76z"/>
		<path d="M258.51,61.13c0.14-0.2,0.27-0.44,0.41-0.64c0.14-0.2,0.37-0.27,0.54-0.12c0.1,0.08,1.32,1.1,2.54,1.1    c1.1,0,1.79-0.66,1.79-1.47c0-0.95-0.83-1.56-2.39-2.2c-1.61-0.68-2.88-1.52-2.88-3.35c0-1.24,0.95-2.93,3.47-2.93    c1.59,0,2.78,0.83,2.93,0.93c0.12,0.08,0.25,0.3,0.1,0.54c-0.12,0.19-0.27,0.41-0.39,0.61c-0.12,0.2-0.34,0.3-0.56,0.15    c-0.12-0.07-1.22-0.8-2.13-0.8c-1.34,0-1.79,0.85-1.79,1.42c0,0.9,0.69,1.46,2.02,2c1.85,0.75,3.4,1.61,3.4,3.56    c0,1.64-1.47,3-3.54,3c-1.93,0-3.15-1.02-3.4-1.25C258.46,61.52,258.36,61.4,258.51,61.13z"/>
	</g>
</g>
</svg>