<svg xmlns="http://www.w3.org/2000/svg" viewBox="0 0 24 24"><title>add-circle-1</title><path d="M8.75,20.5c.146,0,.291,0,.435-.014a.249.249,0,0,0,.133-.45,9.97,9.97,0,0,1,0-16.071.25.25,0,0,0-.133-.451C9.041,3.505,8.9,3.5,8.75,3.5a8.5,8.5,0,0,0,0,17Z"/><path d="M15.25,3.5a8.5,8.5,0,1,0,8.5,8.5A8.5,8.5,0,0,0,15.25,3.5Zm5,8.5a1,1,0,0,1-1,1H16.5a.25.25,0,0,0-.25.25V16a1,1,0,0,1-2,0V13.25A.25.25,0,0,0,14,13H11.25a1,1,0,0,1,0-2H14a.25.25,0,0,0,.25-.25V8a1,1,0,0,1,2,0v2.75a.25.25,0,0,0,.25.25h2.75A1,1,0,0,1,20.25,12Z"/></svg>