<svg id="Bold" xmlns="http://www.w3.org/2000/svg" viewBox="0 0 24 24"><title>ambulance-car</title><path d="M9.5,4.75h4a.5.5,0,0,0,.5-.5v-.5a2.5,2.5,0,0,0-5,0v.5A.5.5,0,0,0,9.5,4.75Z"/><circle cx="5" cy="20.75" r="2"/><path d="M23,6.25H9.5a.5.5,0,0,0-.5.5v.5a.5.5,0,0,1-.5.5H5.589A2.033,2.033,0,0,0,3.8,8.859l-2.215,5a.929.929,0,0,0-.032.146l-.82.82A2.487,2.487,0,0,0,0,16.594V20.25a1,1,0,0,0,1,1,.5.5,0,0,0,.5-.5,3.5,3.5,0,0,1,7,0v.011a.5.5,0,0,0,.5.5l6-.015a.5.5,0,0,0,.5-.5,3.5,3.5,0,0,1,7,0,.5.5,0,0,0,.5.5,1,1,0,0,0,1-1v-13A1,1,0,0,0,23,6.25ZM9,12.766a.5.5,0,0,1-.5.5H4.8a.5.5,0,0,1-.458-.7l1.112-2.516a.5.5,0,0,1,.458-.3H8.5a.5.5,0,0,1,.5.5Zm10.5.484a.5.5,0,0,1-.5.5H18a.5.5,0,0,0-.5.5v1a.5.5,0,0,1-.5.5H16a.5.5,0,0,1-.5-.5v-1a.5.5,0,0,0-.5-.5H14a.5.5,0,0,1-.5-.5v-1a.5.5,0,0,1,.5-.5h1a.5.5,0,0,0,.5-.5v-1a.5.5,0,0,1,.5-.5h1a.5.5,0,0,1,.5.5v1a.5.5,0,0,0,.5.5h1a.5.5,0,0,1,.5.5Z"/><circle cx="19" cy="20.75" r="2"/></svg>