<svg xmlns="http://www.w3.org/2000/svg" viewBox="0 0 24 24"><title>delivery-truck-3</title><path d="M22.5,3.625H11A1.5,1.5,0,0,0,9.515,4.911a.249.249,0,0,1-.247.214H5.819A2.006,2.006,0,0,0,3.858,6.733l-.838,4.2a.088.088,0,0,1-.052.062,24.955,24.955,0,0,0-2.34.928A1.5,1.5,0,0,0,0,13.14v3.985a1.5,1.5,0,0,0,1.5,1.5H3.515a.25.25,0,0,0,.186-.083.256.256,0,0,0,.063-.194,1.842,1.842,0,0,1-.014-.223,3.75,3.75,0,0,1,7.5,0,1.842,1.842,0,0,1-.014.223.252.252,0,0,0,.063.194.249.249,0,0,0,.186.083h3.03a.25.25,0,0,0,.186-.083.256.256,0,0,0,.063-.194,1.842,1.842,0,0,1-.014-.223,3.75,3.75,0,0,1,7.5,0,1.842,1.842,0,0,1-.014.223.252.252,0,0,0,.063.194.249.249,0,0,0,.186.083H22.5a1.5,1.5,0,0,0,1.5-1.5v-12A1.5,1.5,0,0,0,22.5,3.625ZM5.779,7.326a.25.25,0,0,1,.245-.2H8.75a.25.25,0,0,1,.25.25v2.5a.25.25,0,0,1-.25.25H5.525a.25.25,0,0,1-.246-.3Z"/><circle cx="7.5" cy="18.125" r="2.25"/><circle cx="18.5" cy="18.125" r="2.25"/></svg>