<svg xmlns="http://www.w3.org/2000/svg" viewBox="0 0 24 24"><title>drawer-open</title><path d="M23.876,11.263l-3.07-5.5a1.956,1.956,0,0,0-1.7-1.009H4.9A1.955,1.955,0,0,0,3.2,5.759L.13,11.263A1.382,1.382,0,0,0,0,11.75v6a1.5,1.5,0,0,0,1.5,1.5h21a1.5,1.5,0,0,0,1.5-1.5v-6A1.218,1.218,0,0,0,23.876,11.263ZM4.83,6.879a.248.248,0,0,1,.218-.129l13.865-.016a.248.248,0,0,1,.218.128l2.241,4.016a.25.25,0,0,1-.218.372H17.5a1.491,1.491,0,0,0-1.061.439A1.51,1.51,0,0,0,16,12.75a1.5,1.5,0,0,1-1.5,1.5h-5A1.5,1.5,0,0,1,8,12.75a1.5,1.5,0,0,0-1.5-1.5H2.844a.251.251,0,0,1-.219-.371Z"/></svg>