<svg xmlns="http://www.w3.org/2000/svg" viewBox="0 0 24 24"><title>email-action-edit</title><path fill="#FFFFFF" d="M21,1.756a.159.159,0,0,0-.271-.113L12.2,10.17a2.407,2.407,0,0,1-3.4,0L.272,1.643A.155.155,0,0,0,.1,1.609a.158.158,0,0,0-.1.147v10.5a1.75,1.75,0,0,0,1.75,1.75H14.286a.25.25,0,0,0,.177-.074l6.465-6.465A.247.247,0,0,0,21,7.291Z"/><path fill="#FFFFFF" d="M9.727,9.242a1.1,1.1,0,0,0,1.547,0L19.749.767a.439.439,0,0,0,.106-.448c-.1-.286-.364-.313-.605-.313H1.75c-.24,0-.51.027-.6.313a.443.443,0,0,0,.106.448Z"/><path fill="#FFFFFF" d="M11.6,23.985l3.143-.629a.25.25,0,0,0,.128-.422l-2.809-2.808a.249.249,0,0,0-.249-.062.253.253,0,0,0-.173.19L11.011,23.4a.5.5,0,0,0,.588.588Z"/><path fill="#FFFFFF" d="M23.227,11.76a2.62,2.62,0,0,0-3.7,0l-6.679,6.68a.25.25,0,0,0,0,.353L16.2,22.147a.25.25,0,0,0,.353,0l6.679-6.68A2.621,2.621,0,0,0,23.227,11.76Z"/></svg>
