<svg xmlns="http://www.w3.org/2000/svg" viewBox="0 0 24 24"><title>external-upload</title><path d="M18.622,12.89a1.5,1.5,0,0,0-1.008-.39H6.387a1.5,1.5,0,0,0-1.009.39L1.729,16.207a.25.25,0,0,0,.227.428,4.453,4.453,0,0,1,.924-.123c.831-.024,17.7-.012,18.241,0a4.452,4.452,0,0,1,.923.123.25.25,0,0,0,.227-.428Z"/><path d="M21,18H3a3,3,0,1,0,0,6H21a3,3,0,1,0,0-6ZM7,21.75H4a.75.75,0,0,1,0-1.5H7a.75.75,0,0,1,0,1.5Zm10.5.75A1.5,1.5,0,1,1,19,21,1.515,1.515,0,0,1,17.5,22.5Z"/><path d="M10.643,5.619a.25.25,0,0,0-.25-.25h-1.7A.976.976,0,0,1,8,3.7L11.417.286a.977.977,0,0,1,1.381,0L16.214,3.7a.976.976,0,0,1-.69,1.666h-1.7a.25.25,0,0,0-.25.25V9.8a1.465,1.465,0,1,1-2.929,0Z"/></svg>