<svg xmlns="http://www.w3.org/2000/svg" viewBox="0 0 24 24"><title>external-download</title><path d="M18.5,13.118a1.472,1.472,0,0,0-.989-.382H6.5a1.475,1.475,0,0,0-.99.382l-3.564,3.24a.25.25,0,0,0,.226.429,5.794,5.794,0,0,1,1.006-.128H20.827a5.913,5.913,0,0,1,1.007.128.25.25,0,0,0,.226-.429Z"/><path d="M20.827,18.13H3.173a2.942,2.942,0,0,0,0,5.884H20.827a2.942,2.942,0,0,0,0-5.884ZM7.1,21.808H4.154a.736.736,0,0,1,0-1.471H7.1a.736.736,0,1,1,0,1.471Zm11.771-.735A1.472,1.472,0,1,1,17.4,19.6,1.485,1.485,0,0,1,18.867,21.073Z"/><path d="M11.289,10.96a.977.977,0,0,0,1.381,0l3.417-3.417A.976.976,0,0,0,15.4,5.877h-1.7a.25.25,0,0,1-.25-.25V1.45a1.465,1.465,0,0,0-2.929,0V5.627a.25.25,0,0,1-.25.25h-1.7a.976.976,0,0,0-.69,1.666Z"/></svg>