<svg xmlns="http://www.w3.org/2000/svg" viewBox="0 0 24 24"><title>house-4</title><path d="M2.643,10.59l9.049-7.483a.483.483,0,0,1,.616,0l9.049,7.483a1.448,1.448,0,0,0,2.066-.222,1.523,1.523,0,0,0-.218-2.111L14.156.774a3.389,3.389,0,0,0-4.312,0L.8,8.257a1.523,1.523,0,0,0-.218,2.111A1.45,1.45,0,0,0,2.643,10.59Z"/><path d="M22.281,22V15a2.225,2.225,0,0,0-.733-1.59l-8.3-7a1.931,1.931,0,0,0-2.494,0l-8.3,7.006A2.224,2.224,0,0,0,1.719,15v7a1.981,1.981,0,0,0,1.958,2H9.063a.99.99,0,0,0,.979-1V17.5a.991.991,0,0,1,.979-1h1.958a.991.991,0,0,1,.979,1V23a.99.99,0,0,0,.979,1h5.386A1.981,1.981,0,0,0,22.281,22Z"/></svg>