<svg xmlns="http://www.w3.org/2000/svg" viewBox="0 0 24 24"><title>logout-2</title><path d="M17.508,18.5a1,1,0,0,0-1,1V20a.5.5,0,0,1-.5.5h-5.5a.5.5,0,0,1-.5-.5V4a.5.5,0,0,1,.5-.5h5.5a.5.5,0,0,1,.5.5V5a1,1,0,0,0,2,0V2.5a1,1,0,0,0-1-1h-7.5V.5A.5.5,0,0,0,9.4.012l-9,2A.5.5,0,0,0,.008,2.5v19a.5.5,0,0,0,.392.489l9,2a.506.506,0,0,0,.421-.1.5.5,0,0,0,.187-.39v-1h7.5a1,1,0,0,0,1-1v-2A1,1,0,0,0,17.508,18.5Zm-10-6a1.5,1.5,0,1,1-1.5-1.5A1.5,1.5,0,0,1,7.508,12.5Z"/><path d="M23.546,11.668l-4.875-3.25a1,1,0,0,0-1.554.832V11H12.992a1.5,1.5,0,0,0,0,3h4.125v1.75a1,1,0,0,0,1.554.832l4.875-3.25a1,1,0,0,0,0-1.664Z"/></svg>