<svg xmlns="http://www.w3.org/2000/svg" viewBox="0 0 24 24"><title>navigation-arrows-down</title><path d="M21.709,13.085h-1.4a.5.5,0,0,0-.337.13l-6.964,6.333a1.494,1.494,0,0,1-2.018,0L4.025,13.215a.5.5,0,0,0-.336-.13h-1.4a.986.986,0,0,0-.921.626.975.975,0,0,0,.254,1.114l9.693,8.814a.99.99,0,0,0,.679.271,1.019,1.019,0,0,0,.681-.264l9.692-8.814a.971.971,0,0,0,.271-1.1A.994.994,0,0,0,21.709,13.085Z"/><path d="M11.315,17.139a.99.99,0,0,0,.679.271,1.019,1.019,0,0,0,.681-.264l9.692-8.814a.971.971,0,0,0,.271-1.1.994.994,0,0,0-.929-.648h-1.4a.5.5,0,0,0-.337.13l-6.964,6.333a1.494,1.494,0,0,1-2.018,0L4.025,6.715a.5.5,0,0,0-.336-.13h-1.4a.986.986,0,0,0-.921.626.975.975,0,0,0,.254,1.114Z"/><path d="M11.325,10.649a1,1,0,0,0,1.345,0l9.707-8.823a1,1,0,0,0-.672-1.74H2.292a1,1,0,0,0-.673,1.739Z"/></svg>