<svg xmlns="http://www.w3.org/2000/svg" viewBox="0 0 24 24"><title>pin</title><path d="M23.492,6.275,17.728.51a1.481,1.481,0,0,0-2.3.253l-4.1,6.443a7.468,7.468,0,0,0-5.468.8,1.48,1.48,0,0,0-.3,2.325l8.105,8.1a1.5,1.5,0,0,0,1.235.422,1.483,1.483,0,0,0,1.09-.72,7.423,7.423,0,0,0,.8-5.467l6.443-4.1a1.48,1.48,0,0,0,.253-2.295Zm-6.2-2.848L15.172,6.76a.508.508,0,0,1-.69.153.5.5,0,0,1-.154-.69l2.121-3.332a.5.5,0,1,1,.844.536Z"/><path d="M6.454,15.428l-5.94,5.94a1.5,1.5,0,0,0,0,2.121,1.517,1.517,0,0,0,2.121,0l5.94-5.94a1.5,1.5,0,0,0-2.121-2.121Z"/></svg>