<svg xmlns="http://www.w3.org/2000/svg" viewBox="0 0 24 24"><title>receipt-slip</title><path d="M19.883.784A.994.994,0,0,0,18.793,1l-.616.617a.252.252,0,0,1-.354,0L16.707.5a1,1,0,0,0-1.414,0L14.177,1.617a.252.252,0,0,1-.354,0L12.707.5a1,1,0,0,0-1.414,0L10.177,1.617a.252.252,0,0,1-.354,0L8.707.5A1,1,0,0,0,7.293.5L6.177,1.616a.249.249,0,0,1-.354,0L5.208,1A1,1,0,0,0,3.5,1.707V22.293A1,1,0,0,0,5.207,23l.616-.616a.252.252,0,0,1,.354,0L7.293,23.5a1,1,0,0,0,1.414,0l1.116-1.116a.252.252,0,0,1,.354,0L11.293,23.5a1,1,0,0,0,1.414,0l1.116-1.116a.252.252,0,0,1,.354,0L15.293,23.5a1,1,0,0,0,1.414,0l1.116-1.116a.252.252,0,0,1,.354,0l.616.616a1,1,0,0,0,1.707-.707V1.707A1,1,0,0,0,19.883.784ZM17,13.75H16a.75.75,0,0,1,0-1.5h1a.75.75,0,0,1,0,1.5ZM17.75,17a.75.75,0,0,1-.75.75H16a.75.75,0,0,1,0-1.5h1A.75.75,0,0,1,17.75,17ZM17,9.75H16a.75.75,0,0,1,0-1.5h1a.75.75,0,0,1,0,1.5Zm-10,4a.75.75,0,0,1,0-1.5h5a.75.75,0,0,1,0,1.5ZM10.75,17a.75.75,0,0,1-.75.75H7a.75.75,0,0,1,0-1.5h3A.75.75,0,0,1,10.75,17ZM6.25,9A.75.75,0,0,1,7,8.25h4a.75.75,0,0,1,0,1.5H7A.75.75,0,0,1,6.25,9Z"/></svg>