<svg xmlns="http://www.w3.org/2000/svg" viewBox="0 0 24 24"><title>settings-slider-alternate</title><path d="M22.043,0H1.957A1.959,1.959,0,0,0,0,1.958V22.044A1.959,1.959,0,0,0,1.957,24H22.043A1.959,1.959,0,0,0,24,22.044V1.958A1.959,1.959,0,0,0,22.043,0ZM21.5,22l-19,.041a.5.5,0,0,1-.5-.5L1.958,2.5a.5.5,0,0,1,.5-.5L21.5,1.959a.5.5,0,0,1,.5.5V21.5A.5.5,0,0,1,21.5,22Z"/><path d="M4.5,17.5h6.646a3.5,3.5,0,0,0,6.708,0H19.5a1,1,0,0,0,0-2H17.854a3.5,3.5,0,0,0-6.708,0H4.5a1,1,0,0,0,0,2Zm10-2.5A1.5,1.5,0,1,1,13,16.5,1.5,1.5,0,0,1,14.5,15Z"/><path d="M4.5,8.5H5.646a3.5,3.5,0,0,0,6.708,0H19.5a1,1,0,0,0,0-2H12.354a3.5,3.5,0,0,0-6.708,0H4.5a1,1,0,1,0,0,2ZM9,6A1.5,1.5,0,1,1,7.5,7.5,1.5,1.5,0,0,1,9,6Z"/></svg>