<svg xmlns="http://www.w3.org/2000/svg" viewBox="0 0 24 24"><title>trip-distance</title><path d="M5.5,8.5A5.506,5.506,0,0,0,0,14c0,3.555,4.545,8.922,4.74,9.15a1,1,0,0,0,1.52,0C6.453,22.923,11,17.561,11,14A5.506,5.506,0,0,0,5.5,8.5Zm0,8A2.5,2.5,0,1,1,8,14,2.5,2.5,0,0,1,5.5,16.5Z"/><path d="M19.5.5A4.505,4.505,0,0,0,15,5c0,3.171,3.978,7.185,4.146,7.354a.5.5,0,0,0,.708,0C20.022,12.185,24,8.171,24,5A4.505,4.505,0,0,0,19.5.5Zm0,6A1.5,1.5,0,1,1,21,5,1.5,1.5,0,0,1,19.5,6.5Z"/><path d="M17.187,14.643l-7.2,6.22a1,1,0,0,0,1.307,1.514l7.2-6.221a1,1,0,1,0-1.306-1.513Z"/></svg>