<svg xmlns="http://www.w3.org/2000/svg" viewBox="0 0 24 24"><title>bin-2-alternate</title><path d="M20.318,9h-15a.5.5,0,0,0-.5.5V22a2,2,0,0,0,2,2h12a2,2,0,0,0,2-2V9.5A.5.5,0,0,0,20.318,9ZM11.068,20.5a.75.75,0,0,1-1.5,0V13a.75.75,0,0,1,1.5,0Zm5,0a.75.75,0,0,1-1.5,0V13a.75.75,0,1,1,1.5,0Z"/><path d="M21.628,2.552l-4.663.9a.25.25,0,0,1-.293-.2l-.238-1.227A2.5,2.5,0,0,0,13.505.049L8.6,1a2.5,2.5,0,0,0-1.98,2.93l.237,1.227a.249.249,0,0,1-.2.293l-4.663.9A1,1,0,0,0,1.2,7.521a1.032,1.032,0,0,0,1.172.793l19.636-3.8a1,1,0,1,0-.38-1.964Zm-13.048,1a.5.5,0,0,1,.4-.586l4.909-.949a.5.5,0,0,1,.585.4l.238,1.228a.251.251,0,0,1-.2.293L9.11,4.973a.25.25,0,0,1-.293-.2Z"/></svg>