<svg xmlns="http://www.w3.org/2000/svg" viewBox="0 0 24 24"><title>building-1</title><path d="M3.5,3.5h17a.5.5,0,0,0,.391-.812L19.19.563A1.492,1.492,0,0,0,18.02,0H5.98A1.492,1.492,0,0,0,4.81.563l-1.7,2.125A.5.5,0,0,0,3.5,3.5Z"/><path d="M20.5,5H3.5a.5.5,0,0,0-.5.5v17A1.5,1.5,0,0,0,4.5,24h5a.5.5,0,0,0,.5-.5v-2a2,2,0,0,1,4,0v2a.5.5,0,0,0,.5.5h5A1.5,1.5,0,0,0,21,22.5V5.5A.5.5,0,0,0,20.5,5ZM8,16.5a.5.5,0,0,1-.5.5h-2a.5.5,0,0,1-.5-.5v-2a1.5,1.5,0,0,1,3,0Zm0-6a.5.5,0,0,1-.5.5h-2a.5.5,0,0,1-.5-.5v-2a1.5,1.5,0,0,1,3,0Zm5.5,6a.5.5,0,0,1-.5.5H11a.5.5,0,0,1-.5-.5v-2a1.5,1.5,0,0,1,3,0Zm0-6a.5.5,0,0,1-.5.5H11a.5.5,0,0,1-.5-.5v-2a1.5,1.5,0,0,1,3,0Zm5.5,6a.5.5,0,0,1-.5.5h-2a.5.5,0,0,1-.5-.5v-2a1.5,1.5,0,0,1,3,0Zm0-6a.5.5,0,0,1-.5.5h-2a.5.5,0,0,1-.5-.5v-2a1.5,1.5,0,0,1,3,0Z"/></svg>