<svg xmlns="http://www.w3.org/2000/svg" viewBox="0 0 24 24"><title>cog-double-2</title><path d="M15.852,12.367l-1-1.732a1,1,0,0,0-1.366-.366l-.708.409a6.535,6.535,0,0,0-2.353-1.354V8.5a1,1,0,0,0-1-1h-2a1,1,0,0,0-1,1v.821a6.455,6.455,0,0,0-2.357,1.356l-.706-.408A1,1,0,0,0,2,10.635L1,12.367a1,1,0,0,0,.366,1.366l.712.412a6.46,6.46,0,0,0,0,2.713l-.712.411A1,1,0,0,0,1,18.635l1,1.732a1,1,0,0,0,1.366.366l.708-.409a6.508,6.508,0,0,0,2.355,1.355V22.5a1,1,0,0,0,1,1h2a1,1,0,0,0,1-1V21.68a6.471,6.471,0,0,0,2.356-1.355l.705.408a1,1,0,0,0,1.366-.366l1-1.732a1,1,0,0,0-.366-1.366l-.711-.41a6.453,6.453,0,0,0,0-2.715l.711-.411A1,1,0,0,0,15.852,12.367ZM8.425,19a3.5,3.5,0,1,1,3.5-3.5A3.5,3.5,0,0,1,8.425,19Z"/><path d="M22.888,6.134l-.568-.328A3.452,3.452,0,0,0,22.314,4.2l.574-.331a.5.5,0,0,0,.183-.683l-.5-.867a.5.5,0,0,0-.683-.183l-.574.332a3.459,3.459,0,0,0-1.389-.81V1a.5.5,0,0,0-.5-.5h-1a.5.5,0,0,0-.5.5v.656a3.5,3.5,0,0,0-1.395.806l-.569-.329a.5.5,0,0,0-.683.183l-.5.867a.5.5,0,0,0,.183.683l.567.327a3.461,3.461,0,0,0,0,1.61l-.572.33a.5.5,0,0,0-.183.683l.5.867a.5.5,0,0,0,.683.183l.572-.331a3.462,3.462,0,0,0,1.392.812V9a.5.5,0,0,0,.5.5h1a.5.5,0,0,0,.5-.5V8.345a3.489,3.489,0,0,0,1.394-.807l.569.329a.5.5,0,0,0,.683-.183l.5-.867A.5.5,0,0,0,22.888,6.134ZM18.925,6.5a1.5,1.5,0,1,1,1.5-1.5A1.5,1.5,0,0,1,18.925,6.5Z"/></svg>