<svg xmlns="http://www.w3.org/2000/svg" viewBox="0 0 24 24"><title>common-file-stack</title><path d="M18.167,18.5H8a.5.5,0,0,1-.5-.5V4.333a1,1,0,0,0-2,0V18.667A1.833,1.833,0,0,0,7.333,20.5H18.167a1,1,0,0,0,0-2Z"/><path d="M14.667,22H4.5a.5.5,0,0,1-.5-.5V7.833a1,1,0,0,0-2,0V22.167A1.833,1.833,0,0,0,3.833,24H14.667a1,1,0,1,0,0-2Z"/><path d="M21.482,3.569,18.618.537A1.819,1.819,0,0,0,17.321,0H11A2,2,0,0,0,9,2V15a2,2,0,0,0,2,2h9.167A1.835,1.835,0,0,0,22,15.167V4.845A1.8,1.8,0,0,0,21.482,3.569Z"/></svg>